# xmcd CD database file
#
# Track frame offsets:
#	150
#	5486
#	22848
#	43344
#	67342
#	88493
#	114040
#	139603
#	163269
#	193520
#	218468
#	245481
#	265903
#	287383
#	311365
#
# Disc length: 4562 seconds
#
# Revision: 3
# Processed by: cddbd v1.5.2PL0 Copyright (c) Steve Scherf et al.
# Submitted via: CDex 1.51
#
DISCID=cf11d00f
DTITLE=diam's - dans ma bulle
DYEAR=2006
DGENRE=Rap
TTITLE0=introduction
TTITLE1=la boulette
TTITLE2=ma france à moi
TTITLE3=feuille blanche
TTITLE4=jeune demoiselle
TTITLE5=car tu portes mon nom
TTITLE6=marine
TTITLE7=dans ma bulle
TTITLE8=par amour
TTITLE9=big up
TTITLE10=confessions nocturnes (avec vitaa)
TTITLE11=t.s.
TTITLE12=me  revoila
TTITLE13=cause a effet
TTITLE14=petite banlieusarde
EXTD=YEAR: 2006
EXTT0=
EXTT1=
EXTT2=
EXTT3=
EXTT4=
EXTT5=
EXTT6=
EXTT7=
EXTT8=
EXTT9=
EXTT10=
EXTT11=
EXTT12=
EXTT13=
EXTT14=
PLAYORDER=
